<svg width="79" height="68" viewBox="0 0 79 68" fill="none" xmlns="http://www.w3.org/2000/svg">
<path d="M59.2499 14.6622L39.0062 31.8378C38.3479 32.3964 38.3479 33.3739 39.0062 33.9324C39.6645 34.491 40.8166 34.491 41.475 33.9324L61.7187 16.7568L67.8083 17.455L78.9999 7.95946L70.7708 6.98198L69.6187 0L58.2625 9.63514L59.2499 14.6622Z" fill="#F2FCFC"/>
<path d="M69.125 20.2477C71.5938 24.1577 73.075 28.6261 73.075 33.5135C73.075 49.1532 58.0979 61.8604 39.6646 61.8604C21.0667 61.8604 6.08958 49.1532 6.08958 33.5135C6.08958 17.8739 21.0667 5.16667 39.5 5.16667C45.0958 5.16667 50.3625 6.28378 55.1354 8.37838L59.5792 4.60811C53.6542 1.67568 46.7417 0 39.5 0C17.775 0 0 15.0811 0 33.5135C0 51.9459 17.775 67.027 39.5 67.027C61.225 67.027 79 51.9459 79 33.5135C79 27.3694 77.025 21.5045 73.5688 16.4775L69.125 20.2477Z" fill="#F2FCFC"/>
<path d="M54.9711 14.3828C50.5274 11.7296 45.2607 10.3333 39.5003 10.3333C24.3586 10.3333 12.1794 20.6666 12.1794 33.5134C12.1794 46.3603 24.3586 56.6936 39.5003 56.6936C54.6419 56.6936 66.8211 46.3603 66.8211 33.5134C66.8211 28.626 65.0107 24.1576 62.0482 20.3873L57.6044 24.1576C59.5794 26.9504 60.7315 30.1621 60.7315 33.5134C60.7315 43.4278 51.1857 51.5269 39.5003 51.5269C27.8149 51.5269 18.269 43.4278 18.269 33.5134C18.269 23.599 27.8149 15.4999 39.5003 15.4999C43.6149 15.4999 47.4003 16.4774 50.5274 18.1531L54.9711 14.3828Z" fill="#F2FCFC"/>
<path d="M39.4998 25.8334C40.1582 25.8334 40.8165 25.8334 41.3102 25.9731L46.0832 21.9235C44.1082 21.0857 41.804 20.6667 39.4998 20.6667C31.1061 20.6667 24.3582 26.392 24.3582 33.5136C24.3582 40.6352 31.1061 46.3604 39.4998 46.3604C47.8936 46.3604 54.6415 40.6352 54.6415 33.5136C54.6415 31.5586 54.1477 29.6037 53.1602 27.928L48.3873 31.9776C48.5519 32.5361 48.5519 32.955 48.5519 33.5136C48.5519 37.8424 44.4373 41.1938 39.4998 41.1938C34.3977 41.1938 30.4477 37.7028 30.4477 33.5136C30.4477 29.1848 34.3977 25.8334 39.4998 25.8334Z" fill="#F2FCFC"/>
</svg>
<svg width="268" height="44" viewBox="0 0 268 44" fill="none" xmlns="http://www.w3.org/2000/svg">
<path d="M13.8378 0.00707816H15.2146L7.39156 43.7719H6.01473L13.8378 0.00707816ZM11.8384 0.00707816H13.2094L5.38073 43.7719H4.00964L11.8384 0.00707816ZM9.82826 0.00707816H11.2051L3.38202 43.7719H2.00519L9.82826 0.00707816ZM7.82882 0.00707816H9.19991L1.37683 43.7719H0L7.82882 0.00707816ZM45.1019 0.00707816L45.1018 0.0186964H46.5593L54.3824 43.7836H53.0055L48.1318 16.5409L36.5353 43.7836H35.0663L47.6998 14.1097L47.4982 12.992L34.3869 43.7837H32.9179L47.0606 10.5608L46.8589 9.4432L32.2379 43.7838H30.7689L46.4207 7.01356L46.2248 5.90175L30.094 43.7851H28.625L45.7859 3.46585L45.5843 2.34821L27.9443 43.7805H25.3346L14.1702 17.0967L9.40029 43.7805H8.02346L15.8465 0.0156284H17.2234L17.2176 0.0444307L30.9169 33.3299L45.1019 0.00707816ZM26.6322 43.3857L26.926 42.6887L14.8054 13.5048L14.6037 14.6339L26.6322 43.3857ZM27.6686 40.9491L28.0085 40.1541L15.4439 9.91037L15.2422 11.0395L27.6686 40.9491ZM28.7519 38.4084L29.0918 37.6135L16.0895 6.3146L15.8878 7.44369L28.7519 38.4084ZM29.8352 35.8678L30.1693 35.0785L16.77 2.51944L16.5338 3.85017L29.8352 35.8678ZM47.1637 0.00707816H48.5405L56.3636 43.7719H54.9925L47.1637 0.00707816ZM49.1691 0.00707816H50.5459L58.369 43.7719H56.9921L49.1691 0.00707816ZM51.1729 0.00707816H52.544L60.3727 43.7719H58.9958L51.1729 0.00707816ZM54.5481 0.00707816L62.3768 43.7719H60.9999L53.1769 0.00707816H54.5481ZM68.5558 43.7716H67.202V0.00674822H68.5558V43.7716ZM70.647 43.7716H69.2932V0.00674822H70.647V43.7716ZM72.7325 43.7716H71.3787V0.00674822H72.7325V43.7716ZM74.8234 43.7716H73.4696V0.00674822H74.8234V43.7716ZM76.9086 43.7716H75.5548V0.00674822H76.9086V43.7716ZM105.29 6.47099C109.427 10.6015 111.702 16.0975 111.696 21.9443C111.696 33.4544 102.658 43.0002 91.3089 43.7719H89.3906V0.0712624H90.7444V0.0885689C96.2402 0.313248 101.385 2.5654 105.29 6.47099ZM90.7447 9.31079V34.5716C97.2772 34.0934 102.48 28.5688 102.48 21.9437C102.48 15.3129 97.2777 9.7892 90.7447 9.31079ZM90.7447 35.9254V36.5419C98.3662 36.0637 104.45 29.6518 104.45 21.944C104.45 14.2305 98.3605 7.8245 90.7447 7.34045V7.95686C98.0205 8.43501 103.833 14.5758 103.833 21.9442C103.833 29.3064 98.0208 35.447 90.7447 35.9254ZM90.7447 37.8957V38.5121C99.4432 38.0282 106.414 30.7354 106.414 21.9445C106.414 13.1537 99.4435 5.86695 90.7447 5.37695V5.98761C99.1095 6.47151 105.804 13.4938 105.804 21.9447C105.804 30.3955 99.1038 37.411 90.7447 37.8957ZM90.7447 39.8659V40.4766C100.532 39.9927 108.385 31.8238 108.385 21.9443C108.385 12.0705 100.533 3.89579 90.7447 3.40579V4.0222C100.192 4.51184 107.768 12.4101 107.768 21.9439C107.768 31.4778 100.192 39.3821 90.7447 39.8659ZM90.7447 42.4467C101.616 41.9571 110.348 32.9066 110.348 21.9435C110.348 16.4593 108.211 11.3032 104.334 7.42638C100.681 3.7683 95.8767 1.65974 90.7438 1.43509V2.0515C101.269 2.54114 109.732 11.3261 109.732 21.9426C109.732 32.5592 101.275 41.3391 90.7438 41.8291V42.4455L90.7447 42.4467ZM88.8323 43.7717H87.4785V0.0710549H88.8323V43.7717ZM86.9193 43.7717H85.5655V0.0710549H86.9193V43.7717ZM85.007 43.7717H83.6533V0.0710549H85.007V43.7717ZM83.0945 43.7717H81.7407V0.0710549H83.0945V43.7717ZM127.838 0.00707816H129.215L121.392 43.7719H120.015L127.838 0.00707816ZM125.839 0.00707816H127.21L119.381 43.7719H118.01L125.839 0.00707816ZM123.829 0.00707816H125.206L117.383 43.7719H116.006L123.829 0.00707816ZM121.829 0.00707816H123.201L115.377 43.7719H114.001L121.829 0.00707816ZM159.103 0.00707816L159.102 0.0186964H160.56L168.383 43.7836H167.006L162.132 16.5409L150.536 43.7836H149.067L161.7 14.1097L161.499 12.992L148.388 43.7837H146.919L161.061 10.5608L160.86 9.4432L146.238 43.7838H144.77L160.421 7.01356L160.225 5.90175L144.095 43.7851H142.626L159.786 3.46585L159.585 2.34821L141.945 43.7805H139.335L128.171 17.0967L123.401 43.7805H122.024L129.847 0.0156284H131.224L131.218 0.0444307L144.918 33.3299L159.103 0.00707816ZM140.633 43.3857L140.927 42.6887L128.806 13.5048L128.604 14.6339L140.633 43.3857ZM141.669 40.9491L142.009 40.1541L129.444 9.91037L129.243 11.0395L141.669 40.9491ZM142.753 38.4084L143.092 37.6135L130.09 6.3146L129.888 7.44369L142.753 38.4084ZM143.836 35.8678L144.17 35.0785L130.771 2.51944L130.534 3.85017L143.836 35.8678ZM161.164 0.00707816H162.541L170.364 43.7719H168.993L161.164 0.00707816ZM163.17 0.00707816H164.546L172.37 43.7719H170.993L163.17 0.00707816ZM165.173 0.00707816H166.545L174.373 43.7719H172.996L165.173 0.00707816ZM168.549 0.00707816L176.377 43.7719H175.001L167.177 0.00707816H168.549ZM182.556 43.7774H181.203V0.00153776H182.556V43.7774ZM184.642 43.7774H183.288V0.00153776H184.642V43.7774ZM186.733 43.7774H185.379V0.00153776H186.733V43.7774ZM188.818 43.7774H187.465V0.00153776H188.818V43.7774ZM206.786 1.3487L190.909 1.34876V2.08614H206.786V3.43992H190.909V4.17153H206.786V5.52531H190.909V6.26268H206.786V7.61646H190.909V8.34807H206.786V9.70185H190.909V18.1126H202.459V19.4664H190.909V20.2038H202.459V21.5518H190.909V22.2892H202.459V23.6429H190.909V24.3746H202.459V25.7283H190.909V26.4657H202.459V27.8195H190.909V34.07H206.786V35.4238H190.909V36.1554H206.786V37.5092H190.909V38.2466H206.786V39.5946H190.909V40.332H206.786V41.6857H190.909V42.4174H206.786V43.7711H189.556V0H206.786V1.3487ZM212.938 43.7774H211.584V0.00153776H212.938V43.7774ZM215.023 43.7774H213.669V0.00153776H215.023V43.7774ZM217.115 43.7774H215.761V0.00153776H217.115V43.7774ZM219.2 43.7774H217.846V0.00153776H219.2V43.7774ZM237.167 1.3487L221.29 1.34876V2.08614H237.167V3.43992H221.29V4.17153H237.167V5.52531H221.29V6.26268H237.167V7.61646H221.29V8.34807H237.167V9.70185H221.29V18.1126H232.84V19.4664H221.29V20.2038H232.84V21.5518H221.29V22.2892H232.84V23.6429H221.29V24.3746H232.84V25.7283H221.29V26.4657H232.84V27.8195H221.29V34.07H237.167V35.4238H221.29V36.1554H237.167V37.5092H221.29V38.2466H237.167V39.5946H221.29V40.332H237.167V41.6857H221.29V42.4174H237.167V43.7711H219.938V0H237.167V1.3487ZM267.561 1.56787H240.398V0.214098H267.561V1.56787ZM267.561 3.65937H240.398V2.30559H267.561V3.65937ZM267.561 5.7446H240.398V4.39083H267.561V5.7446ZM267.561 7.8361H240.398V6.48232H267.561V7.8361ZM240.4 9.92133V8.56756H267.568V9.92133H258.834V43.7719H257.486V9.92133H256.749V43.7719H255.395V9.92133H254.663V43.7719H253.31V9.92133H252.572V43.7719H251.218V9.92133H250.487V43.7719H249.133V9.92133H240.4Z" fill="#F2FCFC"/>
</svg>
